<svg width="21" height="21" viewBox="0 0 21 21" fill="none" xmlns="http://www.w3.org/2000/svg">
<path d="M13.7143 10.2857C13.7143 12.1741 12.1741 13.7143 10.2857 13.7143C8.39732 13.7143 6.85714 12.1741 6.85714 10.2857C6.85714 8.39733 8.39732 6.85715 10.2857 6.85715C12.1741 6.85715 13.7143 8.39733 13.7143 10.2857ZM20.5714 8.8259C20.5714 8.59822 20.4107 8.38393 20.183 8.34375L17.7321 7.96875C17.5982 7.52679 17.4107 7.08483 17.183 6.65625C17.6384 6.02679 18.1339 5.4375 18.5893 4.82143C18.6563 4.72768 18.6964 4.63393 18.6964 4.5134C18.6964 4.40625 18.6696 4.29911 18.6027 4.21875C18.0402 3.42857 17.1027 2.59822 16.3929 1.94197C16.2991 1.86161 16.1786 1.80804 16.058 1.80804C15.9375 1.80804 15.817 1.84822 15.7366 1.92857L13.8348 3.36161C13.4464 3.16072 13.0446 3 12.6295 2.86607L12.2545 0.40179C12.2277 0.174111 12.0134 3.33786e-06 11.7723 3.33786e-06H8.79911C8.55804 3.33786e-06 8.37054 0.160718 8.31696 0.375003C8.10268 1.17857 8.02232 2.04911 7.92857 2.86607C7.51339 3 7.09821 3.17411 6.70982 3.375L4.86161 1.94197C4.75446 1.86161 4.63393 1.80804 4.51339 1.80804C4.05804 1.80804 2.25 3.7634 1.92857 4.20536C1.86161 4.29911 1.80804 4.39286 1.80804 4.5134C1.80804 4.63393 1.86161 4.74107 1.94196 4.83482C2.4375 5.4375 2.91964 6.04018 3.375 6.68304C3.16071 7.08483 2.98661 7.48661 2.85268 7.91518L0.361607 8.29018C0.160714 8.33036 0 8.57143 0 8.77233V11.7455C0 11.9732 0.160714 12.1875 0.388393 12.2277L2.83929 12.5893C2.97321 13.0446 3.16071 13.4866 3.38839 13.9152C2.93304 14.5446 2.4375 15.1339 1.98214 15.75C1.91518 15.8438 1.875 15.9375 1.875 16.058C1.875 16.1652 1.90179 16.2723 1.96875 16.3661C2.53125 17.1429 3.46875 17.9732 4.17857 18.6161C4.27232 18.7098 4.39286 18.7634 4.51339 18.7634C4.63393 18.7634 4.75446 18.7232 4.84821 18.6429L6.73661 17.2098C7.125 17.4107 7.52679 17.5714 7.94196 17.7054L8.31696 20.1696C8.34375 20.3973 8.55804 20.5714 8.79911 20.5714H11.7723C12.0134 20.5714 12.2009 20.4107 12.2545 20.1964C12.4688 19.3929 12.5491 18.5223 12.6429 17.7054C13.058 17.5714 13.4732 17.3973 13.8616 17.1964L15.7098 18.6429C15.817 18.7098 15.9375 18.7634 16.058 18.7634C16.5134 18.7634 18.3214 16.7946 18.6429 16.3661C18.7232 16.2723 18.7634 16.1786 18.7634 16.058C18.7634 15.9375 18.7098 15.817 18.6295 15.7232C18.1339 15.1205 17.6518 14.5313 17.1964 13.875C17.4107 13.4866 17.5714 13.0848 17.7188 12.6563L20.1964 12.2813C20.4107 12.2411 20.5714 12 20.5714 11.7991V8.8259Z" fill="#CFCFCF" fill-opacity="0.75"/>
</svg>
