<svg width="22" height="18" viewBox="0 0 22 18" fill="none" xmlns="http://www.w3.org/2000/svg">
<path d="M18.5625 10.0178C18.5625 9.99106 18.5625 9.96427 18.5491 9.93749L10.8482 3.58927L3.14729 9.93749C3.14729 9.96427 3.13389 9.99106 3.13389 10.0178V16.4464C3.13389 16.9152 3.52229 17.3036 3.99104 17.3036H9.13389V12.1607H12.5625V17.3036H17.7053C18.1741 17.3036 18.5625 16.9152 18.5625 16.4464V10.0178ZM21.5491 9.09374C21.6964 8.91963 21.6696 8.63838 21.4955 8.49106L18.5625 6.05356V0.589272C18.5625 0.348201 18.375 0.160701 18.1339 0.160701H15.5625C15.3214 0.160701 15.1339 0.348201 15.1339 0.589272V3.20088L11.866 0.468736C11.3035 -1.43051e-05 10.3928 -1.43051e-05 9.83032 0.468736L0.200858 8.49106C0.0267509 8.63838 -3.48613e-05 8.91963 0.147287 9.09374L0.977644 10.0848C1.04461 10.1652 1.15175 10.2187 1.25889 10.2321C1.37943 10.2455 1.48657 10.2053 1.58032 10.1384L10.8482 2.4107L20.116 10.1384C20.1964 10.2053 20.2901 10.2321 20.3973 10.2321C20.4107 10.2321 20.4241 10.2321 20.4375 10.2321C20.5446 10.2187 20.6518 10.1652 20.7187 10.0848L21.5491 9.09374Z" fill="white"/>
</svg>
