<svg width="24" height="19" viewBox="0 0 24 19" fill="none" xmlns="http://www.w3.org/2000/svg">
<path d="M24 16.2857C24 15.817 23.6116 15.4286 23.1429 15.4286H0.857143C0.388393 15.4286 0 15.817 0 16.2857V18C0 18.4688 0.388393 18.8571 0.857143 18.8571H23.1429C23.6116 18.8571 24 18.4688 24 18V16.2857ZM18.8571 11.1429C18.8571 10.6741 18.4688 10.2857 18 10.2857H6C5.53125 10.2857 5.14286 10.6741 5.14286 11.1429V12.8571C5.14286 13.3259 5.53125 13.7143 6 13.7143H18C18.4688 13.7143 18.8571 13.3259 18.8571 12.8571V11.1429ZM22.2857 6C22.2857 5.53125 21.8973 5.14286 21.4286 5.14286H2.57143C2.10268 5.14286 1.71429 5.53125 1.71429 6V7.71429C1.71429 8.18304 2.10268 8.57143 2.57143 8.57143H21.4286C21.8973 8.57143 22.2857 8.18304 22.2857 7.71429V6ZM17.1429 0.857146C17.1429 0.388396 16.7545 3.33786e-06 16.2857 3.33786e-06H7.71429C7.24554 3.33786e-06 6.85714 0.388396 6.85714 0.857146V2.57143C6.85714 3.04018 7.24554 3.42857 7.71429 3.42857H16.2857C16.7545 3.42857 17.1429 3.04018 17.1429 2.57143V0.857146Z" fill="#CFCFCF" fill-opacity="0.75"/>
</svg>
