<svg width="24" height="24" viewBox="0 0 24 24" fill="none" xmlns="http://www.w3.org/2000/svg">
<path d="M10.2857 22.2857V6.85716H15.4286V12.4286C15.4286 13.1384 16.0045 13.7143 16.7143 13.7143H22.2857V22.2857H10.2857ZM13.7143 3.00001C13.7143 3.22769 13.5134 3.42858 13.2857 3.42858H3.85714C3.62946 3.42858 3.42857 3.22769 3.42857 3.00001V2.14287C3.42857 1.91519 3.62946 1.7143 3.85714 1.7143H13.2857C13.5134 1.7143 13.7143 1.91519 13.7143 2.14287V3.00001ZM17.1429 12V7.99555L21.1473 12H17.1429ZM24 13.7143C24 13.0045 23.5982 12.0268 23.0893 11.5179L17.625 6.05358C17.4777 5.90626 17.317 5.78573 17.1429 5.67858V1.28573C17.1429 0.575905 16.567 1.14441e-05 15.8571 1.14441e-05H1.28571C0.575893 1.14441e-05 0 0.575905 0 1.28573V19.2857C0 19.9955 0.575893 20.5714 1.28571 20.5714H8.57143V22.7143C8.57143 23.4241 9.14732 24 9.85714 24H22.7143C23.4241 24 24 23.4241 24 22.7143V13.7143Z" fill="#CFCFCF" fill-opacity="0.75"/>
</svg>
